<svg width="1174" height="1453" xmlns="http://www.w3.org/2000/svg" xmlns:xlink="http://www.w3.org/1999/xlink" xml:space="preserve" overflow="hidden"><g transform="translate(-2685 -893)"><g><rect x="2690.5" y="1977.5" width="1155" height="178" stroke="#0A4D9E" stroke-width="6.875" stroke-linecap="round" stroke-linejoin="round" stroke-miterlimit="10" stroke-opacity="1" fill="#E0F7EC" fill-opacity="1"/><text fill="#000000" fill-opacity="1" font-family="Century Gothic,Century Gothic_MSFontService,sans-serif" font-style="normal" font-variant="normal" font-weight="400" font-stretch="normal" font-size="83" text-anchor="start" direction="ltr" writing-mode="lr-tb" unicode-bidi="normal" text-decoration="none" transform="matrix(1 0 0 1 3145.49 2097)">Server</text><rect x="2690.5" y="1798.5" width="1155" height="178" stroke="#0A4D9E" stroke-width="6.875" stroke-linecap="round" stroke-linejoin="round" stroke-miterlimit="10" stroke-opacity="1" fill="#E0F7EC" fill-opacity="1"/><text fill="#000000" fill-opacity="1" font-family="Century Gothic,Century Gothic_MSFontService,sans-serif" font-style="normal" font-variant="normal" font-weight="400" font-stretch="normal" font-size="83" text-anchor="start" direction="ltr" writing-mode="lr-tb" unicode-bidi="normal" text-decoration="none" transform="matrix(1 0 0 1 2892.55 1918)">Host OS/Hypervisor</text><path d="M2690.5 947.334C2690.5 921.469 2711.47 900.5 2737.33 900.5L2924.67 900.5C2950.53 900.5 2971.5 921.469 2971.5 947.334L2971.5 1702.67C2971.5 1728.53 2950.53 1749.5 2924.67 1749.5L2737.33 1749.5C2711.47 1749.5 2690.5 1728.53 2690.5 1702.67Z" stroke="#217C51" stroke-width="6.875" stroke-linecap="round" stroke-linejoin="round" stroke-miterlimit="10" stroke-opacity="1" fill="#FFFFFF" fill-rule="evenodd" fill-opacity="1"/><text fill="#0E73ED" fill-opacity="1" font-family="Century Gothic,Century Gothic_MSFontService,sans-serif" font-style="normal" font-variant="normal" font-weight="400" font-stretch="normal" font-size="73" text-anchor="start" direction="ltr" writing-mode="lr-tb" unicode-bidi="normal" text-decoration="none" transform="matrix(1 0 0 1 2770.69 1002)">VM</text><path d="M2984.5 947.168C2984.5 921.394 3005.39 900.5 3031.17 900.5L3217.83 900.5C3243.61 900.5 3264.5 921.394 3264.5 947.168L3264.5 1702.83C3264.5 1728.61 3243.61 1749.5 3217.83 1749.5L3031.17 1749.5C3005.39 1749.5 2984.5 1728.61 2984.5 1702.83Z" stroke="#217C51" stroke-width="6.875" stroke-linecap="round" stroke-linejoin="round" stroke-miterlimit="10" stroke-opacity="1" fill="#FFFFFF" fill-rule="evenodd" fill-opacity="1"/><text fill="#0E73ED" fill-opacity="1" font-family="Century Gothic,Century Gothic_MSFontService,sans-serif" font-style="normal" font-variant="normal" font-weight="400" font-stretch="normal" font-size="73" text-anchor="start" direction="ltr" writing-mode="lr-tb" unicode-bidi="normal" text-decoration="none" transform="matrix(1 0 0 1 3064.65 1002)">VM</text><path d="M3573.5 947.158C3573.5 921.39 3594.39 900.5 3620.16 900.5L3806.78 900.5C3832.55 900.5 3853.44 921.39 3853.44 947.158L3853.44 1702.84C3853.44 1728.61 3832.55 1749.5 3806.78 1749.5L3620.16 1749.5C3594.39 1749.5 3573.5 1728.61 3573.5 1702.84Z" stroke="#217C51" stroke-width="6.875" stroke-linecap="round" stroke-linejoin="round" stroke-miterlimit="10" stroke-opacity="1" fill="#FFFFFF" fill-rule="evenodd" fill-opacity="1"/><text fill="#0E73ED" fill-opacity="1" font-family="Century Gothic,Century Gothic_MSFontService,sans-serif" font-style="normal" font-variant="normal" font-weight="400" font-stretch="normal" font-size="73" text-anchor="start" direction="ltr" writing-mode="lr-tb" unicode-bidi="normal" text-decoration="none" transform="matrix(1 0 0 1 3653.35 1002)">VM</text><rect x="2711.5" y="1452.5" width="224" height="232" stroke="#0A4D9E" stroke-width="6.875" stroke-linecap="round" stroke-linejoin="round" stroke-miterlimit="10" stroke-opacity="1" fill="#DEECFD" fill-opacity="1"/><text fill="#000000" fill-opacity="1" font-family="Century Gothic,Century Gothic_MSFontService,sans-serif" font-style="normal" font-variant="normal" font-weight="400" font-stretch="normal" font-size="64" text-anchor="start" direction="ltr" writing-mode="lr-tb" unicode-bidi="normal" text-decoration="none" transform="matrix(1 0 0 1 2778.98 1593)">OS</text><rect x="3005.5" y="1452.5" width="239" height="232" stroke="#0A4D9E" stroke-width="6.875" stroke-linecap="round" stroke-linejoin="round" stroke-miterlimit="10" stroke-opacity="1" fill="#DEECFD" fill-opacity="1"/><text fill="#000000" fill-opacity="1" font-family="Century Gothic,Century Gothic_MSFontService,sans-serif" font-style="normal" font-variant="normal" font-weight="400" font-stretch="normal" font-size="64" text-anchor="start" direction="ltr" writing-mode="lr-tb" unicode-bidi="normal" text-decoration="none" transform="matrix(1 0 0 1 3080.41 1593)">OS</text><rect x="3595.5" y="1452.5" width="241" height="232" stroke="#0A4D9E" stroke-width="6.875" stroke-linecap="round" stroke-linejoin="round" stroke-miterlimit="10" stroke-opacity="1" fill="#DEECFD" fill-opacity="1"/><text fill="#000000" fill-opacity="1" font-family="Century Gothic,Century Gothic_MSFontService,sans-serif" font-style="normal" font-variant="normal" font-weight="400" font-stretch="normal" font-size="64" text-anchor="start" direction="ltr" writing-mode="lr-tb" unicode-bidi="normal" text-decoration="none" transform="matrix(1 0 0 1 3671.74 1593)">OS</text><rect x="2711.5" y="1196.5" width="224" height="232" stroke="#0A4D9E" stroke-width="6.875" stroke-linecap="round" stroke-linejoin="round" stroke-miterlimit="10" stroke-opacity="1" fill="#DEECFD" fill-opacity="1"/><text fill="#000000" fill-opacity="1" font-family="Century Gothic,Century Gothic_MSFontService,sans-serif" font-style="normal" font-variant="normal" font-weight="400" font-stretch="normal" font-size="55" text-anchor="start" direction="ltr" writing-mode="lr-tb" unicode-bidi="normal" text-decoration="none" transform="matrix(1 0 0 1 2783.85 1300)">MS </text><text fill="#000000" fill-opacity="1" font-family="Century Gothic,Century Gothic_MSFontService,sans-serif" font-style="normal" font-variant="normal" font-weight="400" font-stretch="normal" font-size="55" text-anchor="start" direction="ltr" writing-mode="lr-tb" unicode-bidi="normal" text-decoration="none" transform="matrix(1 0 0 1 2772.4 1366)">SQL</text><rect x="3005.5" y="1196.5" width="239" height="232" stroke="#0A4D9E" stroke-width="6.875" stroke-linecap="round" stroke-linejoin="round" stroke-miterlimit="10" stroke-opacity="1" fill="#DEECFD" fill-opacity="1"/><text fill="#000000" fill-opacity="1" font-family="Century Gothic,Century Gothic_MSFontService,sans-serif" font-style="normal" font-variant="normal" font-weight="400" font-stretch="normal" font-size="55" text-anchor="start" direction="ltr" writing-mode="lr-tb" unicode-bidi="normal" text-decoration="none" transform="matrix(1 0 0 1 3097.88 1333)">IIS</text><rect x="3595.5" y="1196.5" width="241" height="232" stroke="#0A4D9E" stroke-width="6.875" stroke-linecap="round" stroke-linejoin="round" stroke-miterlimit="10" stroke-opacity="1" fill="#DEECFD" fill-opacity="1"/><text fill="#000000" fill-opacity="1" font-family="Century Gothic,Century Gothic_MSFontService,sans-serif" font-style="normal" font-variant="normal" font-weight="400" font-stretch="normal" font-size="55" text-anchor="start" direction="ltr" writing-mode="lr-tb" unicode-bidi="normal" text-decoration="none" transform="matrix(1 0 0 1 3653.41 1300)">WCF</text><text fill="#000000" fill-opacity="1" font-family="Century Gothic,Century Gothic_MSFontService,sans-serif" font-style="normal" font-variant="normal" font-weight="400" font-stretch="normal" font-size="55" text-anchor="start" direction="ltr" writing-mode="lr-tb" unicode-bidi="normal" text-decoration="none" transform="matrix(1 0 0 1 3658.29 1366)">Svcs</text><text fill="#000000" fill-opacity="1" font-family="Century Gothic,Century Gothic_MSFontService,sans-serif" font-style="normal" font-variant="normal" font-weight="400" font-stretch="normal" font-size="83" text-anchor="start" direction="ltr" writing-mode="lr-tb" unicode-bidi="normal" text-decoration="none" transform="matrix(1 0 0 1 3181.27 2277)">VMs</text><path d="M3278.5 947.334C3278.5 921.469 3299.47 900.5 3325.33 900.5L3512.66 900.5C3538.53 900.5 3559.5 921.469 3559.5 947.334L3559.5 1702.67C3559.5 1728.53 3538.53 1749.5 3512.66 1749.5L3325.33 1749.5C3299.47 1749.5 3278.5 1728.53 3278.5 1702.67Z" stroke="#217C51" stroke-width="6.875" stroke-linecap="round" stroke-linejoin="round" stroke-miterlimit="10" stroke-opacity="1" fill="#FFFFFF" fill-rule="evenodd" fill-opacity="1"/><text fill="#0E73ED" fill-opacity="1" font-family="Century Gothic,Century Gothic_MSFontService,sans-serif" font-style="normal" font-variant="normal" font-weight="400" font-stretch="normal" font-size="73" text-anchor="start" direction="ltr" writing-mode="lr-tb" unicode-bidi="normal" text-decoration="none" transform="matrix(1 0 0 1 3359 1002)">VM</text><rect x="3307.5" y="1196.5" width="224" height="232" stroke="#0A4D9E" stroke-width="6.875" stroke-linecap="round" stroke-linejoin="round" stroke-miterlimit="10" stroke-opacity="1" fill="#DEECFD" fill-opacity="1"/><text fill="#000000" fill-opacity="1" font-family="Century Gothic,Century Gothic_MSFontService,sans-serif" font-style="normal" font-variant="normal" font-weight="400" font-stretch="normal" font-size="55" text-anchor="start" direction="ltr" writing-mode="lr-tb" unicode-bidi="normal" text-decoration="none" transform="matrix(1 0 0 1 3379.63 1300)">MS </text><text fill="#000000" fill-opacity="1" font-family="Century Gothic,Century Gothic_MSFontService,sans-serif" font-style="normal" font-variant="normal" font-weight="400" font-stretch="normal" font-size="55" text-anchor="start" direction="ltr" writing-mode="lr-tb" unicode-bidi="normal" text-decoration="none" transform="matrix(1 0 0 1 3345.25 1366)">SQL 2</text><rect x="3298.5" y="1453.5" width="241" height="232" stroke="#0A4D9E" stroke-width="6.875" stroke-linecap="round" stroke-linejoin="round" stroke-miterlimit="10" stroke-opacity="1" fill="#DEECFD" fill-opacity="1"/><text fill="#000000" fill-opacity="1" font-family="Century Gothic,Century Gothic_MSFontService,sans-serif" font-style="normal" font-variant="normal" font-weight="400" font-stretch="normal" font-size="64" text-anchor="start" direction="ltr" writing-mode="lr-tb" unicode-bidi="normal" text-decoration="none" transform="matrix(1 0 0 1 3374.76 1594)">OS</text></g></g></svg>